<svg width="642" height="474" viewBox="0 0 642 474" fill="none" xmlns="http://www.w3.org/2000/svg">
<g clip-path="url(#clip0)">
<path fill-rule="evenodd" clip-rule="evenodd" d="M106.046 -0.00260193H523.556C532.475 -0.00260193 539.775 7.29605 539.775 16.2174V262.317C539.775 271.237 532.475 278.537 523.556 278.537H106.046C97.124 278.537 89.8255 271.237 89.8255 262.317V16.2174C89.8255 7.29605 97.124 -0.00260193 106.046 -0.00260193Z" fill="#2E2D2D"/>
<path fill-rule="evenodd" clip-rule="evenodd" d="M105.381 262.983H524.221V15.5534H105.381V262.983Z" fill="#DCE5EE"/>
<path fill-rule="evenodd" clip-rule="evenodd" d="M171.887 15.5534L183.797 27.4627H524.221V15.5534H171.887Z" fill="#6398D7"/>
<path fill-rule="evenodd" clip-rule="evenodd" d="M105.381 262.981H524.221V40.2281H105.381V262.981Z" fill="#F3F6F9"/>
<path fill-rule="evenodd" clip-rule="evenodd" d="M140.547 85.7067H489.053V48.2001H140.547V85.7067" fill="#F1485F"/>
<path fill-rule="evenodd" clip-rule="evenodd" d="M140.547 194.709H210.964V95.8654H140.547V194.709Z" fill="#8EBAE6"/>
<path fill-rule="evenodd" clip-rule="evenodd" d="M140.547 262.981H210.964V206.723H140.547V262.981Z" fill="#8EBAE6"/>
<path fill-rule="evenodd" clip-rule="evenodd" d="M397.949 194.709H489.053V95.8654H397.949V194.709Z" fill="#C6E445"/>
<path fill-rule="evenodd" clip-rule="evenodd" d="M397.949 262.981H489.053V206.723H397.949V262.981Z" fill="#C6E445"/>
<path fill-rule="evenodd" clip-rule="evenodd" d="M219.716 262.981H390.788V95.8641H219.716V262.981Z" fill="#CED5DA"/>
<path fill-rule="evenodd" clip-rule="evenodd" d="M476.129 130.203H628.143C635.744 130.203 641.963 136.42 641.963 144.02V373.499C641.963 381.1 635.744 387.319 628.143 387.319H476.129C468.528 387.319 462.311 381.1 462.311 373.499V144.02C462.311 136.42 468.528 130.203 476.129 130.203Z" fill="#1E1D1C"/>
<path fill-rule="evenodd" clip-rule="evenodd" d="M471.052 378.576H633.22V138.944H471.052V378.576Z" fill="#F3F6F9"/>
<path fill-rule="evenodd" clip-rule="evenodd" d="M303.695 318.093H361.917C371.672 318.093 379.656 326.076 379.656 335.831V456.931C379.656 466.688 371.672 474.669 361.917 474.669H303.695C293.939 474.669 285.957 466.688 285.957 456.931V335.831C285.957 326.076 293.939 318.093 303.695 318.093Z" fill="#1E1D1C"/>
<path fill-rule="evenodd" clip-rule="evenodd" d="M8.93281 222.499H197.087C202.001 222.499 206.021 226.519 206.021 231.435V358.605C206.021 363.52 202.001 367.539 197.087 367.539H8.93281C4.01979 367.539 0 363.52 0 358.605V231.435C0 226.519 4.01979 222.499 8.93281 222.499Z" fill="#1E1D1C"/>
<path fill-rule="evenodd" clip-rule="evenodd" d="M8.17395 359.365H197.847V230.675H8.17395V359.365" fill="#F3F6F9"/>
<path fill-rule="evenodd" clip-rule="evenodd" d="M471.052 151.613H633.22V138.944H471.052V151.613Z" fill="#6398D7"/>
<path fill-rule="evenodd" clip-rule="evenodd" d="M479.436 190.905H624.839V162.053H479.436V190.905Z" fill="#F1485F"/>
<path fill-rule="evenodd" clip-rule="evenodd" d="M479.436 239.781H547.792V202.013H479.436V239.781" fill="#8EBAE6"/>
<path fill-rule="evenodd" clip-rule="evenodd" d="M556.481 239.781H624.839V202.013H556.481V239.781Z" fill="#C6E445"/>
<path fill-rule="evenodd" clip-rule="evenodd" d="M479.436 378.576H624.839V251.269H479.436V378.576" fill="#CED5DA"/>
<path fill-rule="evenodd" clip-rule="evenodd" d="M8.17395 239.501H197.847V230.675H8.17395V239.501Z" fill="#6398D7"/>
<path fill-rule="evenodd" clip-rule="evenodd" d="M15.4729 267.307H190.548V246.333H15.4729V267.307Z" fill="#F1485F"/>
<path fill-rule="evenodd" clip-rule="evenodd" d="M15.4713 359.365H65.8833V284.012H15.4713V359.365" fill="#8EBAE6"/>
<path fill-rule="evenodd" clip-rule="evenodd" d="M75.3755 359.365H190.548V284.012H75.3755V359.365" fill="#CED5DA"/>
<path fill-rule="evenodd" clip-rule="evenodd" d="M15.4729 278.537H190.548V272.053H15.4729V278.537Z" fill="#C6E445"/>
<path fill-rule="evenodd" clip-rule="evenodd" d="M289.564 456.931H376.048V335.831H289.564V456.931Z" fill="#F3F6F9"/>
<path fill-rule="evenodd" clip-rule="evenodd" d="M289.564 344.803H376.048V335.833H289.564V344.803Z" fill="#6398D7"/>
<path fill-rule="evenodd" clip-rule="evenodd" d="M293.639 364.447H372.824V348.929H293.639V364.447" fill="#F1485F"/>
<path fill-rule="evenodd" clip-rule="evenodd" d="M293.639 379.16H372.824V367.817H293.639V379.16Z" fill="#C6E445"/>
<path fill-rule="evenodd" clip-rule="evenodd" d="M293.639 393.775H372.824V382.435H293.639V393.775Z" fill="#8EBAE6"/>
<path fill-rule="evenodd" clip-rule="evenodd" d="M293.639 456.931H372.824V397.429H293.639V456.931Z" fill="#CED5DA"/>
<path fill-rule="evenodd" clip-rule="evenodd" d="M325.723 461.729H339.889C342.084 461.729 343.873 463.523 343.873 465.716V465.717C343.873 467.908 342.084 469.701 339.889 469.701H325.723C323.529 469.701 321.737 467.908 321.737 465.717V465.716C321.737 463.523 323.529 461.729 325.723 461.729Z" fill="#464648"/>
</g>
<defs>
<clipPath id="clip0">
<rect width="641.96" height="596.52" fill="white"/>
</clipPath>
</defs>
</svg>
